<svg width="54" height="54" viewBox="0 0 54 54" fill="none" xmlns="http://www.w3.org/2000/svg">
<path d="M27 0.333008C12.28 0.333008 0.333298 12.2797 0.333298 26.9997C0.333298 41.7197 12.28 53.6663 27 53.6663C41.72 53.6663 53.6666 41.7197 53.6666 26.9997C53.6666 12.2797 41.72 0.333008 27 0.333008ZM27 8.33301C31.4266 8.33301 35 11.9063 35 16.333C35 20.7597 31.4266 24.333 27 24.333C22.5733 24.333 19 20.7597 19 16.333C19 11.9063 22.5733 8.33301 27 8.33301ZM27 46.1997C20.3333 46.1997 14.44 42.7863 11 37.613C11.08 32.3063 21.6666 29.3997 27 29.3997C32.3066 29.3997 42.92 32.3063 43 37.613C39.56 42.7863 33.6666 46.1997 27 46.1997Z" fill="#999999"/>
</svg>
