<svg width="19" height="18" viewBox="0 0 19 18" fill="none" xmlns="http://www.w3.org/2000/svg">
<path d="M9.10907 12.1505C9.08172 12.1852 9.06558 12.2046 9.05836 12.2133L8.35565 12.8397L9.17091 13.3764L13.3248 16.1115L13.3488 16.1273L13.3738 16.1412C13.7961 16.3751 14.3536 16.5416 14.895 16.2965C15.4389 16.0502 15.6867 15.5157 15.791 15.0147C15.7911 15.0143 15.7911 15.014 15.7912 15.0136L18.1766 3.7275C18.332 3.08822 18.2531 2.42153 17.7926 1.97438C17.324 1.51929 16.6714 1.49689 16.1426 1.72897L2.13513 7.15186L2.1351 7.1518L2.12571 7.15558C1.83726 7.27175 1.57464 7.41705 1.36764 7.60076C1.16532 7.78032 0.957853 8.05103 0.921912 8.41241C0.883215 8.80149 1.05935 9.11907 1.28032 9.32847C1.48791 9.52518 1.75148 9.64885 2.0089 9.72822C2.00962 9.72844 2.01034 9.72866 2.01105 9.72888L5.60629 10.8556L5.91976 10.9538L6.20451 10.7901L12.7677 7.0152C12.5111 7.3877 12.2394 7.77894 11.9639 8.17333C11.2754 9.15887 10.5658 10.1595 10.0106 10.9292C9.73279 11.3144 9.49527 11.6395 9.3191 11.8751C9.23069 11.9933 9.16024 12.0857 9.10907 12.1505Z" stroke="#EEEEEE" stroke-width="1.5"/>
</svg>
