<svg width="14" height="12" viewBox="0 0 14 12" fill="none" xmlns="http://www.w3.org/2000/svg">
<path d="M14 1.47812C13.4849 1.70069 12.9313 1.85106 12.3504 1.9187C12.9433 1.57243 13.3988 1.02411 13.6132 0.37071C13.0582 0.691409 12.4435 0.92421 11.7893 1.04968C11.2654 0.505862 10.5189 0.166138 9.69275 0.166138C8.10655 0.166138 6.82044 1.41886 6.82044 2.96406C6.82044 3.18336 6.84585 3.39693 6.89485 3.60171C4.50771 3.48504 2.39132 2.37107 0.974658 0.678247C0.727418 1.09148 0.585737 1.57209 0.585737 2.08488C0.585737 3.05564 1.09282 3.91204 1.86352 4.41379C1.3927 4.39926 0.949808 4.27338 0.562567 4.06384C0.56224 4.0755 0.562241 4.08722 0.562241 4.09902C0.562241 5.45465 1.55232 6.58545 2.8663 6.84266C2.62528 6.90663 2.37153 6.94079 2.10959 6.94079C1.92451 6.94079 1.74461 6.9232 1.56919 6.8906C1.93473 8.00217 2.99545 8.81112 4.25237 8.83362C3.26936 9.58412 2.03091 10.0315 0.685162 10.0315C0.453321 10.0315 0.224701 10.0182 0 9.99231C1.27113 10.7863 2.78089 11.2495 4.40294 11.2495C9.68606 11.2495 12.5752 6.986 12.5752 3.28844C12.5752 3.16713 12.5724 3.0465 12.5668 2.92642C13.128 2.532 13.6149 2.03926 14 1.47812H14Z" fill="white"/>
</svg>
