<svg width="18" height="18" viewBox="0 0 18 18" fill="none" xmlns="http://www.w3.org/2000/svg">
<path d="M0.736452 8.92645C0.73595 10.3818 1.11796 11.8026 1.8441 13.0548L0.666748 17.3337L5.06592 16.1855C6.27804 16.8435 7.64262 17.1902 9.03143 17.1908H9.03497C13.6083 17.1908 17.3315 13.4858 17.3334 8.93285C17.3342 6.72615 16.4716 4.65136 14.905 3.09054C13.3381 1.52972 11.2548 0.669654 9.03497 0.668701C4.4607 0.668701 0.738226 4.37301 0.736312 8.92619L0.736452 8.92645ZM3.35606 12.8391L3.19185 12.5794C2.50131 11.4866 2.13687 10.2236 2.13737 8.92681C2.13887 5.14249 5.23289 2.06347 9.03741 2.06347C10.8798 2.06418 12.6113 2.77916 13.9138 4.07637C15.2161 5.37368 15.9327 7.09825 15.9322 8.93219C15.9305 12.7167 12.8364 15.796 9.0348 15.796H9.0321C7.79425 15.7953 6.58027 15.4645 5.52156 14.8392L5.26959 14.6905L2.65893 15.3718L3.35606 12.8391ZM9.03497 17.1908H9.03505H9.03497C9.03489 17.1908 9.0348 17.1908 9.03497 17.1908Z" fill="#EEEEEE"/>
</svg>
